<svg width="17" height="18" viewBox="0 0 17 18" fill="none" xmlns="http://www.w3.org/2000/svg">
<path fill-rule="evenodd" clip-rule="evenodd" d="M8.5 0.942719C3.808 0.942719 0 4.75072 0 9.44272C0 14.1347 3.808 17.9427 8.5 17.9427C13.192 17.9427 17 14.1347 17 9.44272C17 4.75072 13.192 0.942719 8.5 0.942719ZM7.65 5.19272V6.89272H9.35V5.19272H7.65ZM7.65 8.59272V13.6927H9.35V8.59272H7.65ZM1.7 9.44272C1.7 13.1912 4.7515 16.2427 8.5 16.2427C12.2485 16.2427 15.3 13.1912 15.3 9.44272C15.3 5.69422 12.2485 2.64272 8.5 2.64272C4.7515 2.64272 1.7 5.69422 1.7 9.44272Z" fill="#E22644"/>
</svg>
