<svg width="1125" height="2436" viewBox="0 0 1125 2436" fill="none" xmlns="http://www.w3.org/2000/svg">
<g id="Background">
<mask id="mask0_102_3560" style="mask-type:alpha" maskUnits="userSpaceOnUse" x="0" y="0" width="1125" height="2436">
<rect id="Mask" width="1125" height="2436" fill="white"/>
</mask>
<g mask="url(#mask0_102_3560)">
<g id="Background_2">
<g id="Brand/MHC Emblem">
<g id="MHC Emblem">
<g id="M">
<mask id="mask1_102_3560" style="mask-type:alpha" maskUnits="userSpaceOnUse" x="-253" y="-287" width="2463" height="3224">
<path id="Clip 2" fill-rule="evenodd" clip-rule="evenodd" d="M159.732 -286.567L2209.73 1.54062L1797.18 2936.94L-252.811 2648.83L159.732 -286.567Z" fill="white"/>
</mask>
<g mask="url(#mask1_102_3560)">
<path id="Fill 1" fill-rule="evenodd" clip-rule="evenodd" d="M1039.33 -162.955L1038.59 -163.059C984.955 -170.343 846.98 -158.312 724.543 109.72C506.927 584.601 369.594 946.849 224.209 1330.39C99.8938 1658.27 -28.6524 1997.4 -219.235 2440.81C-238.453 2485.49 -229.536 2537.84 -194.794 2584.59C-142.483 2654.84 -48.4742 2693.61 33.8548 2678.85C95.1114 2667.89 178.547 2623.7 227.978 2475.47C311.657 2223.68 397.109 1907.41 479.766 1601.45C666.194 911.308 785.956 494.238 881.804 518.132C959.341 537.662 961.046 768.803 963.034 1036.44C964.456 1228.3 965.92 1426.64 994.078 1574.9C1003.76 1626.98 1037.83 1665.68 1082.95 1675.92C1130.94 1687.3 1181.22 1663.38 1217.2 1613.04C1267.62 1542.26 1328.3 1442.01 1392.57 1335.83C1535.58 1099.46 1683.45 855.035 1764.76 855.843C1780.31 856.042 1793.02 864.687 1802.46 881.536L1802.48 881.538C1827 925.393 1787.81 1067.72 1733.49 1264.59C1668.79 1499.34 1580.18 1820.76 1571.79 2100.29C1575.18 2176.41 1619.84 2191.63 1656.79 2190.87C1752.47 2188.95 1887.08 2083.96 1889.14 2009.76C1859.13 1553.8 1943.28 1233.59 2040.75 862.814C2079.51 715.317 2119.64 562.773 2154.53 392.453C2167.08 331.09 2133.56 269.674 2072.98 243.033C2004.58 212.955 1899.27 229.352 1808.73 365.36C1752.49 449.653 1685.7 556.929 1621.11 660.64C1430.69 966.455 1311.74 1152.1 1266.25 1152.42C1260.22 1152.41 1255.5 1149.68 1252.19 1144.3C1212.11 1080.09 1214.64 932.515 1218.1 728.211C1221.62 516.101 1226.12 252.085 1183.09 -20.6383C1171.52 -93.1372 1111.11 -152.866 1039.33 -162.955Z" fill="#EDF7EE"/>
</g>
</g>
</g>
</g>
</g>
</g>
</g>
</svg>
