<svg width="1125" height="1083" viewBox="0 0 1125 1083" fill="none" xmlns="http://www.w3.org/2000/svg">
<g id="Background">
<mask id="mask0_511_2603" style="mask-type:alpha" maskUnits="userSpaceOnUse" x="0" y="0" width="1125" height="1083">
<rect id="Rectangle" width="1125" height="1083" fill="white"/>
</mask>
<g mask="url(#mask0_511_2603)">
<g id="Brand/MHC Emblem">
<g id="MHC Emblem">
<g id="y">
<mask id="mask1_511_2603" style="mask-type:alpha" maskUnits="userSpaceOnUse" x="-402" y="-1436" width="2861" height="3086">
<path id="Clip 5" fill-rule="evenodd" clip-rule="evenodd" d="M605.333 -1435.84L2458.54 -610.743L1452.19 1649.57L-401.021 824.465L605.333 -1435.84Z" fill="white"/>
</mask>
<g mask="url(#mask1_511_2603)">
<path id="Fill 4" fill-rule="evenodd" clip-rule="evenodd" d="M1152.39 83.3719C300.377 -40.5811 -171.371 296.885 -280.557 554.044C-348.604 714.847 -275.686 868.164 -85.4808 964.115C120.867 1068.1 422.358 1082.56 700.877 1001.44C939.936 931.828 1276.06 762.127 1519.71 349.344C1534.06 328.077 1550.24 308.611 1550.41 308.401L1552.28 306.187L1555.13 306.65C1755.65 343.047 1843.06 360.45 1843.94 360.622C1958.12 384.749 2030.07 357.841 2036.65 336.639C2039.79 326.409 2026.27 318.918 2017.93 315.672C1819.41 233.957 1609.95 179.898 1607.87 179.373L1601.57 177.727L1604.84 172.026C1863.16 -281.356 1998.01 -707.976 1997.69 -735.564C1994 -789.828 1966.28 -831.206 1918.48 -851.15C1841.92 -883.7 1732.39 -854.442 1639.32 -776.535C1604.48 -746.645 1481.13 -642.703 1357.12 -560.034C1213.15 -463.979 1118.17 -429.607 1074.87 -457.331C1043.52 -477.49 1039.55 -526.728 1062.78 -607.838C1063.97 -610.716 1161.93 -832.338 1331.38 -937.003C1357.1 -956.394 1368.66 -977.941 1364.55 -999.053C1358.37 -1030.67 1317.77 -1060.54 1261.21 -1075.12C1197.67 -1091.46 1104.79 -1088.41 1052.26 -1026.03C949.956 -932.258 808.753 -706.161 829.123 -517.088C838.946 -425.621 885.704 -355.226 968.027 -307.92C1131.37 -214.276 1308.02 -327.756 1449.97 -418.97C1481.11 -438.964 1510.51 -457.852 1538.04 -473.51C1548.81 -480.79 1588.55 -497.801 1612.49 -482.371C1626.47 -473.504 1631.52 -456.008 1627.6 -430.331C1598.96 -242.643 1407.64 118.702 1405.94 121.743L1404.2 124.965L1400.62 124.255C1287.71 102.392 1201.57 89.8249 1167.69 85.3046L1167.66 85.588C1160.2 84.6233 1155.44 84.0003 1152.39 83.3719ZM168.552 775.868C164.986 774.281 161.535 772.667 158.097 770.967C56.3437 721.383 20.0199 640.96 58.3514 550.301L58.3659 550.268C127.529 387.451 405.164 217.063 976.986 227.219C1263.32 243.35 1335.23 260.169 1338.11 260.88L1344.47 262.412L1341.31 268.146C1040.3 810.248 417.424 886.674 168.552 775.868Z" fill="#EDF7EE"/>
</g>
</g>
<g id="M">
<mask id="mask2_511_2603" style="mask-type:alpha" maskUnits="userSpaceOnUse" x="-1353" y="-2692" width="2640" height="3026">
<path id="Clip 2" fill-rule="evenodd" clip-rule="evenodd" d="M-325.38 -2691.4L1286.02 -1973.96L258.711 333.415L-1352.69 -384.027L-325.38 -2691.4Z" fill="white"/>
</mask>
<g mask="url(#mask2_511_2603)">
<path id="Fill 1" fill-rule="evenodd" clip-rule="evenodd" d="M366.031 -2383.57L365.448 -2383.83C323.23 -2402.4 207.395 -2424.95 44.1616 -2234.17C-245.61 -1896.32 -443.172 -1631.87 -652.329 -1351.88C-831.157 -1112.52 -1016.09 -864.944 -1276.33 -546.524C-1302.57 -514.442 -1307.56 -469.469 -1290.08 -423.025C-1263.73 -353.197 -1195.84 -299.359 -1124.94 -292.119C-1072.2 -286.704 -993.479 -303.302 -918.178 -413.106C-790.504 -599.683 -646.234 -838.66 -506.674 -1069.85C-191.892 -1591.32 4.15358 -1904.8 77.0472 -1862.72C135.967 -1828.51 83.078 -1638.8 21.85 -1419.12C-22.0461 -1261.64 -67.4309 -1098.84 -79.187 -970.8C-83.4861 -925.869 -64.6758 -886.169 -30.1188 -867.18C6.51003 -846.592 53.3103 -854.374 94.6021 -887.153C152.523 -933.291 225.772 -1001.15 303.347 -1073.02C475.993 -1233.03 654.515 -1398.5 720.928 -1378.74C733.615 -1374.93 741.991 -1364.86 745.773 -1348.84L745.784 -1348.84C755.569 -1307.16 690.042 -1199.79 599.315 -1051.3C491.187 -874.22 343.117 -631.771 270.597 -404.794C255.494 -341.648 288.504 -318.69 318.946 -310.639C397.762 -289.741 532.671 -344.114 551.786 -404.407C634.296 -784.916 778.426 -1027.41 945.343 -1308.21C1011.73 -1419.92 1080.42 -1535.44 1149.01 -1666.74C1173.7 -1714.06 1160.66 -1772.23 1117.3 -1808.28C1068.34 -1848.98 978.233 -1860.29 872.135 -1770.15C806.273 -1714.32 726.373 -1642.14 649.111 -1572.36C421.32 -1366.61 280.294 -1242.49 242.961 -1252.91C238.025 -1254.33 234.802 -1257.68 233.356 -1262.86C215.607 -1324.87 252.339 -1445.15 303.15 -1611.67C355.855 -1784.57 421.547 -1999.76 450.353 -2233.25C457.906 -2295.34 422.458 -2358.45 366.031 -2383.57Z" fill="#EDF7EE"/>
</g>
</g>
</g>
</g>
</g>
</g>
</svg>
