<svg width="375" height="672" viewBox="0 0 375 672" fill="none" xmlns="http://www.w3.org/2000/svg">
<path fill-rule="evenodd" clip-rule="evenodd" d="M502.867 681.881C244.15 1019.95 294.319 1366.76 391.21 1517.42C451.85 1611.52 541.961 1638.69 632.237 1590.06C730.122 1537.26 807.668 1406.08 834.307 1247.75C857.178 1111.86 855.128 892.558 715.63 619.682C708.864 604.807 703.384 589.812 703.324 589.651L702.707 587.934L703.595 586.822C767.926 510.099 796.701 477.256 796.99 476.923C835.239 434.575 839.287 391.333 830.73 380.012C826.594 374.564 819.858 377.758 816.356 380.269C730.91 438.271 656.076 512.106 655.337 512.846L653.077 515.058L651.127 511.335C495.731 215.84 324.145 -13.0836 310.931 -23.7859C284.221 -43.4417 258.017 -47.1225 237.314 -33.2607C203.87 -11.3022 192.134 49.9257 207.428 122.8C213.499 150.366 234.095 247.225 244.406 336.018C256.415 439.133 250.525 495.764 227.172 504.525C210.225 510.829 185.843 493.277 152.656 450.847C151.564 449.175 68.9685 317.584 58.8302 199.517C55.6234 180.216 48.0707 166.498 37.0504 160.068C20.5457 150.443 -3.198 157.13 -23.3987 177.076C-46.0689 199.499 -66.3863 242.862 -48.9869 291.23C-28.3006 374.537 46.2922 527.518 141.118 592.595C186.984 624.091 231.47 630.537 273.294 611.761C356.176 574.419 343.527 449.618 333.352 349.32C331.128 327.321 329.022 306.551 328.017 287.896C327.072 280.148 328.286 255.417 341.243 250.618C348.744 247.755 358.262 252.338 369.572 264.212C452.251 350.995 579.515 579.894 580.564 581.862L581.692 583.916L580.515 585.262C543.639 627.929 517.466 662.093 507.373 675.696L507.5 675.823C505.293 678.828 503.881 680.744 502.867 681.881ZM602.114 1400.74C600.523 1401.73 598.945 1402.66 597.33 1403.56C549.867 1430.26 503.05 1415.13 468.854 1362.09L468.842 1362.07C407.505 1266.67 391.42 1073.66 530.27 818.057C605.059 694.408 629.922 668.378 630.936 667.349L633.156 665.063L635.147 668.752C822.794 1018.5 713.215 1331.31 602.114 1400.74Z" fill="#EDF7EE"/>
</svg>
