<svg width="375" height="360" viewBox="0 0 375 360" fill="none" xmlns="http://www.w3.org/2000/svg">
<path fill-rule="evenodd" clip-rule="evenodd" d="M231.534 -99.3912L231.292 -99.5091C213.789 -107.945 165.354 -119.152 93.8573 -41.3016C-33.051 96.551 -120.071 204.889 -212.2 319.597C-290.969 417.655 -372.429 519.082 -486.621 649.2C-498.132 662.309 -500.889 681.158 -494.207 700.958C-484.133 730.729 -456.336 754.389 -426.594 758.487C-404.468 761.548 -371.088 755.731 -337.788 710.647C-281.323 634.038 -217.108 535.627 -154.99 440.423C-14.8785 225.677 72.2181 96.6877 102.292 115.475C126.598 130.741 101.57 209.782 72.5949 301.302C51.8221 366.912 30.3451 434.738 23.5313 488.438C21.0672 507.279 28.4078 524.262 42.679 532.764C57.7992 541.97 77.6145 539.39 95.4749 526.21C120.53 507.656 152.355 480.192 186.059 451.102C261.07 386.337 338.634 319.361 366.305 328.66C371.59 330.453 374.969 334.812 376.328 341.609L376.333 341.611C379.845 359.293 350.696 403.496 310.339 464.63C262.241 537.533 196.375 637.349 162.54 731.775C155.263 758.12 168.825 768.269 181.523 772.108C214.399 782.07 271.985 761.193 280.91 736.108C321.186 577.231 385.393 477.336 459.751 361.664C489.325 315.648 519.925 268.061 550.711 213.831C561.794 194.29 557.155 169.619 539.424 153.808C519.405 135.957 481.637 129.865 435.66 166.216C407.12 188.731 372.433 217.915 338.891 246.128C239.999 329.323 178.822 379.456 163.258 374.514C161.2 373.845 159.892 372.389 159.359 370.186C152.79 343.834 170.005 293.771 193.821 224.458C218.526 152.49 249.315 62.9231 264.842 -34.889C268.926 -60.9048 254.922 -87.9838 231.534 -99.3912Z" fill="#EDF7EE"/>
</svg>
