<svg width="1440" height="1024" viewBox="0 0 1440 1024" fill="none" xmlns="http://www.w3.org/2000/svg">
    <path fill="#EDF7EE" d="M0 0h1440v1024H0z"/>
    <mask id="inkci31qra" mask-type="alpha" maskUnits="userSpaceOnUse" x="0" y="0" width="1440" height="1024">
        <path fill="#fff" d="M0 0h1440v1024H0z"/>
    </mask>
    <g mask="url(#inkci31qra)">
        <mask id="kluanrtdhb" mask-type="alpha" maskUnits="userSpaceOnUse" x="570" y="228" width="969" height="1183">
            <path fill-rule="evenodd" clip-rule="evenodd" d="M570.047 228.848H1539V1410H570.047V228.848z" fill="#fff"/>
        </mask>
        <g mask="url(#kluanrtdhb)">
            <path fill-rule="evenodd" clip-rule="evenodd" d="M1103.91 785.174C708.046 896.553 567.759 1135.32 570.075 1268.68c1.548 83.34 63.152 136.04 164.79 140.95 110.242 5.29 244.608-46.95 350.385-136.4 90.79-76.78 204.49-216.05 230.61-443.384 2.13-12.061 5.41-23.692 5.44-23.817l.39-1.327 1.33-.352c94.57-23.062 136.09-32.445 136.51-32.542 54.51-11.647 80.68-37.353 79.43-47.877-.61-5.072-7.97-5.713-12.24-5.509-102.5 2.911-204.4 20.004-205.41 20.18l-3.07.505.32-3.12c24.63-247.884.59-460.122-4.9-472.093-12.15-22.948-32.29-35.611-57.02-35.026-39.73.669-81.85 34.697-107.32 86.744-9.4 19.8-43.03 89.082-81.08 149.214-44.16 69.844-78.925 103.277-103.207 99.595-17.593-2.707-28.893-23.408-34.514-63.292-.04-1.486-.35-117.159 53.254-195.706 7.457-13.451 8.316-25.093 2.418-33.501-8.836-12.589-32.356-17.735-59.87-13.111-30.898 5.214-70.835 24.577-81.638 61.981-26.423 60.761-44.112 186.782 1.509 265.284 22.056 37.982 56.135 59.603 101.248 64.25 89.47 9.122 144.5-74.667 188.72-142.009 9.71-14.767 18.87-28.712 27.84-40.887 3.28-5.265 17.32-20.401 30.76-18.319 7.82 1.151 13.43 7.801 16.71 19.76 23.96 87.414 10.68 282.15 10.53 283.807l-.13 1.741-1.7.386c-53.52 12.391-93.55 23.635-109.21 28.242l.04.13c-3.44 1.027-5.64 1.68-7.09 1.997zM809.141 1278.21c-1.864 0-3.683-.03-5.514-.11-54.033-1.86-85.508-29.88-86.395-76.86v-.02c-1.452-84.44 86.593-212.652 338.078-319.253 128.08-48.564 162.73-55.19 164.12-55.44l3.08-.567-.27 3.114c-26.03 294.866-282.975 449.136-413.099 449.136z" fill="#4DB05B"/>
        </g>
        <mask id="cy6coj12qc" mask-type="alpha" maskUnits="userSpaceOnUse" x="-80" y="-138" width="843" height="1206">
            <path fill-rule="evenodd" clip-rule="evenodd" d="M-80-138h842.524v1205.75H-80V-138z" fill="#fff"/>
        </mask>
        <g mask="url(#cy6coj12qc)">
            <path fill-rule="evenodd" clip-rule="evenodd" d="M281.504-138.003h-.305c-22.028.102-76.954 12.759-111.118 127.655-60.807 203.603-95.637 357.293-132.507 520.015C6.043 648.776-26.556 792.657-78.25 982.054c-5.215 19.086 1.344 39.666 17.994 56.526 25.062 25.34 65.146 35.64 97.49 25.03 24.068-7.88 55.193-30.41 66.718-92.914 19.463-106.159 35.988-238.392 51.971-366.313 36.045-288.545 60.689-463.322 100.672-459.124 32.356 3.478 46.135 96.486 62.095 204.177 11.441 77.202 23.266 157.014 43.011 215.137 6.853 20.43 22.774 34.091 41.543 35.662 19.982 1.867 38.892-10.614 50.542-32.927 16.31-31.368 35.09-75.183 54.977-121.591 44.248-103.305 89.999-210.133 122.818-214.411 6.277-.8 11.887 1.963 16.649 8.215h.006c12.367 16.277 4.633 75.824-6.107 158.2-12.78 98.222-30.288 232.708-17.836 345.777 5.678 30.471 24.542 34.073 39.389 31.674 38.452-6.19 86.757-56.098 83.384-86.104-37.921-181.965-22.141-315.708-3.859-470.578 7.266-61.606 14.797-125.323 19.215-195.905 1.582-25.427-15.407-48.268-41.333-55.57-29.271-8.243-70.785 4.324-99.57 64.234-17.893 37.137-38.734 84.129-58.892 129.561-59.424 133.963-96.847 215.478-115.163 218.178-2.43.34-4.486-.494-6.125-2.474-19.791-23.595-27.129-83.181-37.31-165.671-10.593-85.639-23.734-192.24-56.525-299.658-8.769-28.548-36.497-49.188-66-49.188z" fill="#4DB05B"/>
        </g>
    </g>
</svg>
