<svg width="375" height="412" viewBox="0 0 375 412" fill="none" xmlns="http://www.w3.org/2000/svg">
    <mask id="t2c48usp4a" style="mask-type:alpha" maskUnits="userSpaceOnUse" x="0" y="0" width="375" height="540">
        <rect width="375" height="540" rx="25" fill="#fff"/>
    </mask>
    <g mask="url(#t2c48usp4a)">
        <mask id="8syzfvulgb" style="mask-type:alpha" maskUnits="userSpaceOnUse" x="144" y="295" width="954" height="1029">
            <path fill-rule="evenodd" clip-rule="evenodd" d="m479.778 295.385 617.732 275.034-335.448 753.441-617.736-275.04 335.452-753.435z" fill="#fff"/>
        </mask>
        <g mask="url(#8syzfvulgb)">
            <path fill-rule="evenodd" clip-rule="evenodd" d="M662.131 801.791c-284.005-41.318-441.255 71.171-477.65 156.89-22.682 53.599 1.624 104.709 65.025 136.689 68.783 34.66 169.28 39.48 262.12 12.44 79.686-23.2 191.727-79.77 272.945-217.362 4.783-7.089 10.175-13.578 10.232-13.648l.622-.738.95.155c66.841 12.132 95.979 17.933 96.273 17.99 38.059 8.043 62.043-.927 64.236-7.994 1.048-3.41-3.46-5.907-6.241-6.989-66.175-27.238-135.992-45.258-136.687-45.433l-2.099-.549 1.088-1.9c86.107-151.127 131.058-293.334 130.953-302.53-1.23-18.088-10.47-31.881-26.405-38.529-25.519-10.85-62.031-1.097-93.053 24.872-11.613 9.963-52.731 44.611-94.067 72.167-47.988 32.018-79.649 43.476-94.084 34.234-10.447-6.719-11.772-23.132-4.028-50.169.396-.959 33.05-74.833 89.532-109.721 8.574-6.464 12.428-13.646 11.056-20.684-2.058-10.538-15.591-20.496-34.445-25.357-21.18-5.444-52.14-4.429-69.65 16.364-34.102 31.258-81.17 106.624-74.38 169.648 3.275 30.489 18.861 53.954 46.302 69.723 54.447 31.215 113.329-6.612 160.646-37.017 10.382-6.664 20.181-12.96 29.359-18.18 3.588-2.426 16.837-8.097 24.814-2.953 4.662 2.955 6.347 8.787 5.039 17.346-9.547 62.563-73.321 183.011-73.888 184.025l-.578 1.074-1.193-.237c-37.64-7.287-66.352-11.476-77.645-12.983l-.012.094c-2.485-.321-4.071-.529-5.087-.738zM334.184 1032.62a90.624 90.624 0 0 1-3.485-1.63c-33.918-16.53-46.026-43.337-33.249-73.556l.005-.011c23.055-54.273 115.6-111.069 306.207-107.683 95.446 5.377 119.414 10.983 120.375 11.22l2.12.511-1.053 1.911c-100.337 180.698-307.963 206.178-390.92 169.238z" fill="#4DB05B"/>
        </g>
        <mask id="uesyjdnqac" style="mask-type:alpha" maskUnits="userSpaceOnUse" x="-173" y="-124" width="880" height="1010">
            <path fill-rule="evenodd" clip-rule="evenodd" d="m169.54-123.134 537.134 239.147-342.437 769.125-537.134-239.147L169.54-123.134z" fill="#fff"/>
        </mask>
        <g mask="url(#uesyjdnqac)">
            <path fill-rule="evenodd" clip-rule="evenodd" d="m400.01-20.524-.194-.087c-14.073-6.188-52.684-13.704-107.095 49.888C196.13 141.893 130.276 230.042 60.557 323.374.947 403.16-60.698 485.686-147.444 591.826c-8.745 10.694-10.409 25.685-4.583 41.166 8.782 23.276 31.413 41.222 55.046 43.635 17.582 1.805 43.821-3.727 68.922-40.329 42.558-62.192 90.648-141.851 137.168-218.913 104.927-173.826 170.276-278.319 194.573-264.292 19.64 11.403 2.011 74.642-18.399 147.866-14.632 52.494-29.76 106.761-33.679 149.441-1.433 14.977 4.837 28.211 16.356 34.54 12.21 6.863 27.81 4.269 41.574-6.658 19.307-15.379 43.723-37.997 69.582-61.955 57.548-53.337 117.056-108.494 139.193-101.907 4.229 1.271 7.021 4.626 8.282 9.966l.004.001c3.261 13.893-18.581 49.682-48.823 99.18-36.043 59.026-85.4 139.843-109.573 215.502-5.034 21.049 5.969 28.701 16.116 31.385 26.272 6.966 71.242-11.158 77.614-31.256 27.503-126.836 75.546-207.669 131.185-301.269 22.129-37.235 45.026-75.741 67.888-119.51 8.23-15.771 3.886-35.163-10.569-47.179-16.32-13.567-46.355-17.335-81.721 12.71-21.954 18.611-48.588 42.67-74.342 65.929-75.93 68.586-122.939 109.96-135.383 106.483-1.645-.472-2.72-1.588-3.202-3.316-5.916-20.669 6.328-60.761 23.265-116.27 17.568-57.634 39.466-129.363 49.068-207.19 2.517-20.7-9.299-41.736-28.108-50.11z" fill="#EDF7EE"/>
        </g>
    </g>
</svg>
