<svg width="16" height="20" viewBox="0 0 16 20" fill="none" xmlns="http://www.w3.org/2000/svg">
<path fill-rule="evenodd" clip-rule="evenodd" d="M14.0001 9V14L15.2901 15.29C15.9201 15.92 15.4701 17 14.5801 17H1.41005C0.520051 17 0.0800514 15.92 0.710051 15.29L2.00005 14V9C2.00005 5.92 3.63005 3.36 6.50005 2.68V2C6.50005 1.17 7.17005 0.5 8.00005 0.5C8.83005 0.5 9.50005 1.17 9.50005 2V2.68C12.3601 3.36 14.0001 5.93 14.0001 9ZM10.0001 18C10.0001 19.1 9.10005 20 8.00005 20C6.89005 20 6.00005 19.1 6.00005 18H10.0001Z" fill="#000040"/>
</svg>
