<svg width="23" height="25" viewBox="0 0 23 25" fill="none" xmlns="http://www.w3.org/2000/svg">
<path d="M14.0554 8.75H8.94428C8.2415 8.75 7.6665 8.1875 7.6665 7.5C7.6665 6.8125 8.2415 6.25 8.94428 6.25H14.0554C14.7582 6.25 15.3332 6.8125 15.3332 7.5C15.3332 8.1875 14.7582 8.75 14.0554 8.75Z" fill="#367B3F"/>
<path d="M14.0554 12.5H8.94428C8.2415 12.5 7.6665 11.9375 7.6665 11.25C7.6665 10.5625 8.2415 10 8.94428 10H14.0554C14.7582 10 15.3332 10.5625 15.3332 11.25C15.3332 11.9375 14.7582 12.5 14.0554 12.5Z" fill="#367B3F"/>
<path fill-rule="evenodd" clip-rule="evenodd" d="M21.0833 1.875L19.1667 0L17.25 1.875L15.3333 0L13.4167 1.875L11.5 0L9.58333 1.875L7.66667 0L5.75 1.875L3.83333 0V17.5H1.27778C0.575 17.5 0 18.0625 0 18.75V21.25C0 23.325 1.71222 25 3.83333 25H19.1667C21.2878 25 23 23.325 23 21.25V0L21.0833 1.875ZM3.83333 22.5C3.13056 22.5 2.55556 21.9375 2.55556 21.25V20H6.38889H11.5H15.3333V22.5H3.83333ZM19.1667 22.5C19.8694 22.5 20.4444 21.9375 20.4444 21.25V3.75H6.38889V17.5H11.5H14.0556H16.6111C17.3139 17.5 17.8889 18.0625 17.8889 18.75V21.25C17.8889 21.9375 18.4639 22.5 19.1667 22.5Z" fill="#367B3F"/>
<ellipse cx="17.8891" cy="7.5" rx="1.27778" ry="1.25" fill="#367B3F"/>
<ellipse cx="17.8891" cy="11.25" rx="1.27778" ry="1.25" fill="#367B3F"/>
</svg>
