<svg width="37" height="34" viewBox="0 0 37 34" fill="none" xmlns="http://www.w3.org/2000/svg">
<path d="M14.1204 10.09V18.23C14.1195 18.6856 14.3746 19.103 14.7804 19.31L21.7104 23.11C22.3282 23.4524 23.1043 23.2809 23.5204 22.71C23.7012 22.4364 23.7566 22.0985 23.6725 21.7814C23.5885 21.4643 23.373 21.1982 23.0804 21.05L16.8704 17.68V10.09C16.8379 9.39236 16.2482 8.8518 15.5504 8.88005H15.4404C15.1037 8.86101 14.7737 8.97877 14.5251 9.20661C14.2766 9.43445 14.1306 9.75303 14.1204 10.09Z" fill="#000040"/>
<path d="M29.8004 15.44C29.4363 15.4409 29.0895 15.5958 28.8457 15.8663C28.6019 16.1367 28.4837 16.4977 28.5204 16.86C28.5204 17.25 28.5204 17.65 28.5204 18.04C28.5204 25.2197 22.7001 31.04 15.5204 31.04C8.34075 31.04 2.52045 25.2197 2.52045 18.04C2.52045 10.8603 8.34075 5.03997 15.5204 5.03997C16.7244 5.04276 17.9223 5.211 19.0804 5.53997C19.4615 5.66051 19.877 5.59316 20.2005 5.35847C20.5239 5.12378 20.7169 4.74957 20.7204 4.34997V4.26997C20.7177 3.70342 20.3372 3.20835 19.7904 3.05997C14.9704 1.68492 9.78308 2.72076 5.8608 5.84152C1.93852 8.96228 -0.236401 13.7842 0.0204488 18.79C0.447904 27.2336 7.52363 33.8 15.9756 33.5967C24.4276 33.3934 31.1795 26.4944 31.2004 18.04C31.199 17.5622 31.1723 17.0849 31.1204 16.61C31.0495 15.9492 30.495 15.4463 29.8304 15.44H29.8004Z" fill="#000040"/>
<path d="M30.6905 5.32V1.32C30.6905 0.590984 30.0995 0 29.3705 0C28.6415 0 28.0505 0.590984 28.0505 1.32V5.32H24.0505C23.3215 5.32 22.7305 5.91098 22.7305 6.64C22.7305 7.36902 23.3215 7.96 24.0505 7.96H28.0505V11.96C28.0505 12.689 28.6415 13.28 29.3705 13.28C30.0995 13.28 30.6905 12.689 30.6905 11.96V7.99H34.6905C35.4195 7.99 36.0105 7.39902 36.0105 6.67C36.0105 5.94098 35.4195 5.35 34.6905 5.35L30.6905 5.32Z" fill="#000040"/>
</svg>
