<svg width="60" height="60" viewBox="0 0 60 60" fill="none" xmlns="http://www.w3.org/2000/svg">
<path d="M17.9118 31.5049C19.4405 34.57 20.6061 37.3618 21.5424 39.5874C23.4532 44.2924 24.6952 47.1428 26.9691 47.1428C29.243 47.1428 29.6443 45.1905 29.6443 41.1102C29.6443 36.0537 30.122 35.6438 30.7144 35.6438C31.3067 35.6438 31.7844 36.0537 31.7844 41.1102C31.7844 45.21 32.0519 47.1428 34.4596 47.1428C36.8672 47.1428 37.9182 44.2924 39.8863 39.5874C40.8226 37.3618 41.9882 34.57 43.5169 31.5049L43.6889 31.1535C44.8655 29.1984 45.5605 26.981 45.7144 24.6914C45.7144 18.8345 41.8927 14.2856 37.1347 14.2856C35.2845 14.3127 33.4882 14.9267 31.9946 16.0427C31.219 16.5696 30.2097 16.5696 29.4341 16.0427C27.9405 14.9267 26.1442 14.3127 24.294 14.2856C19.4787 14.2856 15.7144 18.854 15.7144 24.6914C15.856 27.0079 16.5514 29.2535 17.7398 31.2316L17.9118 31.5049Z" fill="white"/>
<path fill-rule="evenodd" clip-rule="evenodd" d="M2.28813 41.4896C6.93642 52.7014 17.8825 60.0078 30.0196 60C46.5686 59.9788 59.9788 46.5685 60 30.0196C60.0078 17.8825 52.7015 6.93642 41.4896 2.28813C30.2778 -2.36015 17.3698 0.205258 8.78754 8.78754C0.205258 17.3698 -2.36016 30.2778 2.28813 41.4896ZM4.92608 19.6663C9.13131 9.51945 19.0374 2.90723 30.0211 2.91559C44.9873 2.92699 57.1201 15.0505 57.1429 30.0166C57.1597 41.0004 50.555 50.9115 40.4114 55.1245C30.2677 59.3375 18.5848 57.0217 10.8152 49.258C3.04554 41.4943 0.720858 29.8132 4.92608 19.6663Z" fill="white"/>
</svg>
