<svg width="33" height="33" viewBox="0 0 33 33" fill="none" xmlns="http://www.w3.org/2000/svg">
<path fill-rule="evenodd" clip-rule="evenodd" d="M2.24923 0.947998H30.7824C31.4974 0.947977 32.0785 1.52464 32.0839 2.23954V30.7827C32.0785 31.4976 31.4974 32.0742 30.7824 32.0742H2.24923C1.53431 32.0742 0.953211 31.4976 0.947754 30.7827V2.23954C0.953211 1.52464 1.53431 0.947977 2.24923 0.947998ZM29.4392 29.4366C29.4786 29.399 29.5009 29.3469 29.5008 29.2924V3.72979C29.5009 3.67532 29.4786 3.62321 29.4392 3.58565C29.3997 3.54809 29.3466 3.52836 29.2922 3.53109H3.76928C3.70604 3.53109 3.6454 3.55621 3.60068 3.60092C3.55597 3.64564 3.53084 3.70629 3.53084 3.76953V29.2924C3.53078 29.3469 3.55307 29.399 3.59251 29.4366C3.63195 29.4741 3.68508 29.4939 3.73948 29.4911H29.2922C29.3466 29.4939 29.3997 29.4741 29.4392 29.4366Z" fill="#000040"/>
<rect x="7.95166" y="21.8611" width="2.78179" height="2.78179" rx="1.39089" fill="#000040"/>
<rect x="7.95166" y="15.145" width="2.78179" height="2.78179" rx="1.39089" fill="#000040"/>
<rect x="7.95166" y="8.43896" width="2.78179" height="2.78179" rx="1.39089" fill="#000040"/>
<path d="M15.383 24.6428H23.4701C24.0231 24.7366 24.5792 24.4939 24.8864 24.0246C25.1936 23.5552 25.1936 22.9485 24.8864 22.4792C24.5792 22.0099 24.0231 21.7672 23.4701 21.861H15.383C14.83 21.7672 14.274 22.0099 13.9667 22.4792C13.6595 22.9485 13.6595 23.5552 13.9667 24.0246C14.274 24.4939 14.83 24.7366 15.383 24.6428Z" fill="#000040"/>
<path d="M15.3832 17.9368H23.4703C23.8786 17.9753 24.2851 17.8471 24.5975 17.5815C24.9099 17.3158 25.1018 16.9352 25.1294 16.5261C25.0942 16.1223 24.8991 15.7492 24.5876 15.4899C24.276 15.2306 23.8738 15.1065 23.4703 15.1451H15.3832C14.5555 15.0875 13.8327 15.7001 13.7539 16.5261C13.8175 17.364 14.5449 17.9938 15.3832 17.9368Z" fill="#000040"/>
<path d="M15.3832 11.2208H23.4703C24.2996 11.278 25.021 10.6583 25.0897 9.82989C25.021 9.00145 24.2996 8.38182 23.4703 8.43899H15.3832C14.552 8.38162 13.8277 8.99994 13.7539 9.82989C13.8277 10.6598 14.552 11.2782 15.3832 11.2208Z" fill="#000040"/>
</svg>
