<svg width="35" height="32" viewBox="0 0 35 32" fill="none" xmlns="http://www.w3.org/2000/svg">
<path fill-rule="evenodd" clip-rule="evenodd" d="M22.1456 31.4151H27.2856C28.9191 31.3934 30.2349 30.0687 30.2456 28.4351V17.5351H31.8856C32.7743 17.5452 33.574 16.9974 33.8856 16.1651C34.1983 15.3517 33.9708 14.4297 33.3156 13.8551L19.0056 0.785099C17.8778 -0.2617 16.1335 -0.2617 15.0056 0.785099L0.695636 13.8451C0.0499616 14.4309 -0.171297 15.3522 0.137952 16.1673C0.447202 16.9824 1.22391 17.525 2.09564 17.5351H3.72564V28.4351C3.72564 30.092 5.06878 31.4351 6.72564 31.4351H11.8256C13.4825 31.4351 14.8256 30.092 14.8256 28.4351V21.0051H19.1456V28.4151C19.1456 30.072 20.4888 31.4151 22.1456 31.4151ZM20.4256 18.5051H13.5756C12.9006 18.5048 12.3472 19.0404 12.3256 19.7151V28.4351C12.3259 28.6926 12.1229 28.9044 11.8656 28.9151H6.72564C6.46445 28.9097 6.25558 28.6963 6.25564 28.4351V16.2851C6.25564 15.5947 5.69599 15.0351 5.00564 15.0351H3.10564L16.6956 2.6351C16.8679 2.47626 17.1333 2.47626 17.3056 2.6351L30.9056 15.0351H29.0056C28.6724 15.0324 28.3519 15.163 28.1153 15.3977C27.8787 15.6324 27.7456 15.9518 27.7456 16.2851V28.3951C27.7459 28.6526 27.5429 28.8644 27.2856 28.8751H22.1456C21.8845 28.8697 21.6756 28.6563 21.6756 28.3951V19.7151C21.654 19.0404 21.1007 18.5048 20.4256 18.5051Z" fill="#000040"/>
</svg>
