<svg width="24" height="25" viewBox="0 0 24 25" fill="none" xmlns="http://www.w3.org/2000/svg">
<path fill-rule="evenodd" clip-rule="evenodd" d="M5 18.9427C5 19.4927 5.45 19.9427 6 19.9427H18C18.55 19.9427 19 19.4927 19 18.9427V13.9427C19 13.3927 19.45 12.9427 20 12.9427C20.55 12.9427 21 13.3927 21 13.9427V19.9427C21 21.0427 20.1 21.9427 19 21.9427H5C3.9 21.9427 3 21.0427 3 19.9427V5.94272C3 4.84272 3.89 3.94272 5 3.94272H11C11.55 3.94272 12 4.39272 12 4.94272C12 5.49272 11.55 5.94272 11 5.94272H6C5.45 5.94272 5 6.39272 5 6.94272V18.9427ZM15 5.94272C14.45 5.94272 14 5.49272 14 4.94272C14 4.39272 14.45 3.94272 15 3.94272H21V9.94272C21 10.4927 20.55 10.9427 20 10.9427C19.45 10.9427 19 10.4927 19 9.94272V7.35272L9.87 16.4827C9.48 16.8727 8.85 16.8727 8.46 16.4827C8.07 16.0927 8.07 15.4627 8.46 15.0727L17.59 5.94272H15Z" fill="#3C3C3B"/>
</svg>
