<svg width="15" height="21" viewBox="0 0 15 21" fill="none" xmlns="http://www.w3.org/2000/svg">
<path fill-rule="evenodd" clip-rule="evenodd" d="M0.241211 7.87492C0.241211 3.84367 3.50163 0.583252 7.53288 0.583252C11.5641 0.583252 14.8245 3.84367 14.8245 7.87492C14.8245 12.2187 10.2204 18.2083 8.33496 20.4895C7.91829 20.9895 7.15788 20.9895 6.74121 20.4895C4.84538 18.2083 0.241211 12.2187 0.241211 7.87492ZM4.92871 7.87492C4.92871 9.31242 6.09538 10.4791 7.53288 10.4791C8.97038 10.4791 10.137 9.31242 10.137 7.87492C10.137 6.43742 8.97038 5.27075 7.53288 5.27075C6.09538 5.27075 4.92871 6.43742 4.92871 7.87492Z" fill="#000040"/>
</svg>
