<svg width="60" height="60" viewBox="0 0 60 60" fill="none" xmlns="http://www.w3.org/2000/svg">
<path fill-rule="evenodd" clip-rule="evenodd" d="M0 30C0 46.5685 13.4315 60 30 60C46.5598 59.9788 59.9788 46.5598 60 30C60 13.4315 46.5685 0 30 0C13.4315 0 0 13.4315 0 30ZM2.85715 30C2.85715 15.0094 15.0094 2.85714 30 2.85714C44.9859 2.86857 57.1314 15.0141 57.1429 30C57.1429 44.9906 44.9906 57.1429 30 57.1429C15.0094 57.1429 2.85715 44.9906 2.85715 30Z" fill="white"/>
<path fill-rule="evenodd" clip-rule="evenodd" d="M35.6762 29.5943C36.0962 27.2003 38.1993 25.4587 40.6483 25.4766C43.1009 25.4493 45.2128 27.1881 45.638 29.5849C46.0632 31.9817 44.6767 34.3315 42.362 35.1368V39.5651C42.362 44.5391 38.298 48.5714 33.2848 48.5714C28.2717 48.5714 24.2077 44.5391 24.2077 39.5651V33.1188C19.305 32.2363 15.7342 28.0099 15.7144 23.0662V17.2551C15.7144 16.3161 16.4816 15.5548 17.4281 15.5548H19.5938C19.8093 14.7444 20.5934 14.2152 21.4323 14.3139C22.2712 14.4127 22.9087 15.1092 22.9271 15.9472V18.6192C22.9491 19.4876 22.3009 20.2298 21.4313 20.3316C20.5618 20.4333 19.7572 19.8612 19.575 19.0115H19.123V23.0662C19.123 26.9153 23.3226 29.9049 27.089 29.9049C31.0438 29.9049 32.927 26.4669 32.927 23.0662V18.9368H32.3809C32.1986 19.7865 31.3941 20.3586 30.5245 20.2568C29.655 20.155 29.0067 19.4129 29.0288 18.5444V15.9472C29.0483 15.0998 29.6939 14.3961 30.5424 14.2973C31.3908 14.1986 32.183 14.7349 32.3997 15.5548H34.6784C35.6249 15.5548 36.3922 16.3161 36.3922 17.2551V23.0662C36.3953 28.1145 32.6831 32.4088 27.654 33.1748V39.5651C27.654 42.661 30.1835 45.1707 33.3037 45.1707C36.4239 45.1707 38.9534 42.661 38.9534 39.5651V35.1368C36.6423 34.3325 35.2562 31.9882 35.6762 29.5943ZM42.2678 30.4655C42.2678 29.578 41.5427 28.8586 40.6483 28.8586C39.7538 28.8586 39.0287 29.578 39.0287 30.4655C39.0287 31.353 39.7538 32.0724 40.6483 32.0724C41.5427 32.0724 42.2678 31.353 42.2678 30.4655Z" fill="white"/>
</svg>
