<svg width="68" height="65" viewBox="0 0 68 65" fill="none" xmlns="http://www.w3.org/2000/svg">
<mask id="mask0_102_3" style="mask-type:alpha" maskUnits="userSpaceOnUse" x="27" y="15" width="41" height="50">
<path fill-rule="evenodd" clip-rule="evenodd" d="M27.3027 15.4038H68V65H27.3027V15.4038Z" fill="white"/>
</mask>
<g mask="url(#mask0_102_3)">
<path fill-rule="evenodd" clip-rule="evenodd" d="M49.7255 38.7638C33.0989 43.4405 27.2066 53.4665 27.3039 59.0658C27.3689 62.5653 29.9564 64.7783 34.2253 64.9846C38.8556 65.2064 44.4992 63.0131 48.9418 59.2569C52.7551 56.033 57.5306 50.185 58.6278 40.6395C58.7173 40.1331 58.8549 39.6447 58.8564 39.6395L58.8725 39.5837L58.9285 39.5689C62.9005 38.6006 64.6447 38.2066 64.6622 38.2025C66.9516 37.7135 68.0508 36.6341 67.9983 36.1922C67.9725 35.9792 67.6635 35.9523 67.4841 35.9609C63.1789 36.0831 58.8991 36.8008 58.8566 36.8082L58.7277 36.8294L58.741 36.6984C59.7759 26.2898 58.7662 17.378 58.5353 16.8754C58.0249 15.9118 57.1792 15.3801 56.1403 15.4046C54.4716 15.4327 52.7029 16.8616 51.6329 19.047C51.2383 19.8784 49.8257 22.7875 48.2275 25.3124C46.3728 28.2452 44.9125 29.649 43.8926 29.4944C43.1537 29.3808 42.6791 28.5115 42.443 26.8368C42.4413 26.7744 42.4283 21.9173 44.6797 18.6192C44.993 18.0543 45.029 17.5655 44.7813 17.2125C44.4102 16.6839 43.4223 16.4678 42.2667 16.6619C40.9689 16.8809 39.2915 17.6939 38.8378 19.2645C37.728 21.8158 36.985 27.1074 38.9012 30.4037C39.8276 31.9986 41.2589 32.9064 43.1537 33.1015C46.9115 33.4846 49.223 29.9663 51.0802 27.1386C51.4879 26.5185 51.8726 25.933 52.2494 25.4218C52.3873 25.2007 52.9769 24.5651 53.5415 24.6526C53.8701 24.7009 54.1055 24.9801 54.2431 25.4823C55.2497 29.1528 54.6919 37.3297 54.6854 37.3992L54.68 37.4724L54.6086 37.4886C52.3607 38.0088 50.6795 38.481 50.0217 38.6744L50.0233 38.6799C49.8788 38.723 49.7865 38.7504 49.7255 38.7638M37.345 59.4663C37.2667 59.4663 37.1903 59.4648 37.1134 59.4617C34.8439 59.3834 33.522 58.2068 33.4847 56.2341V56.2334C33.4237 52.688 37.1217 47.3042 47.6846 42.828C53.064 40.7889 54.5191 40.5106 54.5777 40.5001L54.7068 40.4763L54.6957 40.6071C53.6024 52.9884 42.8103 59.4663 37.345 59.4663" fill="#4DB05B"/>
</g>
<mask id="mask1_102_3" style="mask-type:alpha" maskUnits="userSpaceOnUse" x="0" y="0" width="36" height="51">
<path fill-rule="evenodd" clip-rule="evenodd" d="M0 0H35.387V50.6289H0V0Z" fill="white"/>
</mask>
<g mask="url(#mask1_102_3)">
<path fill-rule="evenodd" clip-rule="evenodd" d="M15.1837 -0.00012207H15.1709C14.2457 0.00416589 11.9387 0.535635 10.5038 5.36007C7.94978 13.9093 6.48687 20.3627 4.93829 27.1953C3.61396 33.0365 2.24478 39.078 0.0735401 47.0307C-0.145482 47.8321 0.130016 48.6963 0.82932 49.4043C1.88195 50.4682 3.56555 50.9006 4.92406 50.4551C5.93493 50.1242 7.24218 49.1785 7.72625 46.5538C8.54373 42.0962 9.23781 36.5438 9.90912 31.1724C11.423 19.0565 12.4581 11.7177 14.1374 11.894C15.4964 12.04 16.0752 15.9454 16.7455 20.4673C17.2261 23.709 17.7227 27.0602 18.5521 29.5008C18.8399 30.3586 19.5086 30.9323 20.2969 30.9983C21.1362 31.0766 21.9304 30.5525 22.4197 29.6156C23.1048 28.2985 23.8935 26.4587 24.7288 24.5101C26.5873 20.1723 28.5089 15.6867 29.8873 15.507C30.151 15.4735 30.3866 15.5895 30.5866 15.852H30.5869C31.1063 16.5354 30.7814 19.0358 30.3304 22.4948C29.7936 26.6191 29.0582 32.2661 29.5812 37.0138C29.8197 38.2933 30.612 38.4445 31.2356 38.3438C32.8506 38.0839 34.8795 35.9883 34.7378 34.7283C33.1451 27.0876 33.8079 21.4718 34.5758 14.9689C34.8809 12.3821 35.1972 9.70663 35.3828 6.74293C35.4492 5.67523 34.7357 4.71616 33.6468 4.40957C32.4173 4.06344 30.6737 4.59109 29.4647 7.1067C28.7132 8.66608 27.8378 10.6393 26.9912 12.5469C24.4953 18.172 22.9235 21.5948 22.1542 21.7082C22.0521 21.7224 21.9658 21.6874 21.8969 21.6043C21.0657 20.6135 20.7575 18.1115 20.3299 14.6478C19.8849 11.0519 19.333 6.5757 17.9557 2.06525C17.5875 0.866522 16.4228 -0.00012207 15.1837 -0.00012207" fill="#4DB05B"/>
</g>
</svg>
