<svg width="228" height="65" viewBox="0 0 228 65" fill="none" xmlns="http://www.w3.org/2000/svg">
<mask id="mask0_102_13" style="mask-type:alpha" maskUnits="userSpaceOnUse" x="0" y="0" width="36" height="51">
<path fill-rule="evenodd" clip-rule="evenodd" d="M0 0H35.5505V50.6289H0V0Z" fill="white"/>
</mask>
<g mask="url(#mask0_102_13)">
<path fill-rule="evenodd" clip-rule="evenodd" d="M15.2538 -0.00012207H15.2409C14.3115 0.00416589 11.9938 0.535635 10.5523 5.36007C7.98628 13.9093 6.51661 20.3627 4.96112 27.1953C3.63067 33.0365 2.25493 39.078 0.0739077 47.0307C-0.146125 47.8321 0.130406 48.6963 0.833177 49.4043C1.89067 50.4682 3.58204 50.9006 4.94658 50.4551C5.96236 50.1242 7.27564 49.1785 7.76196 46.5538C8.58297 42.0962 9.2805 36.5438 9.9549 31.1724C11.4758 19.0565 12.5154 11.7177 14.2028 11.894C15.568 12.04 16.1494 15.9454 16.8229 20.4673C17.3056 23.709 17.8046 27.0602 18.6377 29.5008C18.9269 30.3586 19.5985 30.9323 20.3906 30.9983C21.2338 31.0766 22.0315 30.5525 22.5233 29.6156C23.2115 28.2985 24.0039 26.4587 24.8428 24.5101C26.7098 20.1723 28.6406 15.6867 30.0254 15.507C30.2902 15.4735 30.5269 15.5895 30.7279 15.852H30.7281C31.2497 16.5354 30.9236 19.0358 30.4704 22.4948C29.9312 26.6191 29.1922 32.2661 29.7178 37.0138C29.9572 38.2933 30.7532 38.4445 31.3799 38.3438C33.0024 38.0839 35.0406 35.9883 34.8983 34.7283C33.2982 27.0876 33.964 21.4718 34.7352 14.9689C35.042 12.3821 35.3598 9.70663 35.5462 6.74293C35.613 5.67523 34.8961 4.71616 33.8019 4.40957C32.5671 4.06344 30.8154 4.59109 29.6005 7.1067C28.8456 8.66608 27.9664 10.6393 27.1158 12.5469C24.6084 18.172 23.0294 21.5948 22.2565 21.7082C22.154 21.7224 22.0672 21.6874 21.9981 21.6043C21.163 20.6135 20.8533 18.1115 20.4235 14.6478C19.9768 11.0519 19.4223 6.5757 18.0384 2.06525C17.6687 0.866522 16.4984 -0.00012207 15.2538 -0.00012207" fill="#4DB05B"/>
</g>
<mask id="mask1_102_13" style="mask-type:alpha" maskUnits="userSpaceOnUse" x="27" y="15" width="42" height="50">
<path fill-rule="evenodd" clip-rule="evenodd" d="M27.4287 15.4038H68.314V65H27.4287V15.4038Z" fill="white"/>
</mask>
<g mask="url(#mask1_102_13)">
<path fill-rule="evenodd" clip-rule="evenodd" d="M49.9553 38.7638C33.2516 43.4405 27.3322 53.4665 27.4299 59.0658C27.4955 62.5653 30.0949 64.7783 34.3832 64.9846C39.0352 65.2064 44.7045 63.0131 49.1679 59.2569C52.9986 56.033 57.7961 50.185 58.8985 40.6395C58.9883 40.1331 59.1266 39.6447 59.128 39.6395L59.1442 39.5837L59.2007 39.5689C63.1911 38.6006 64.9433 38.2066 64.9609 38.2025C67.2607 37.7135 68.3649 36.6341 68.3122 36.1922C68.2865 35.9792 67.9758 35.9523 67.7956 35.9609C63.4708 36.0831 59.1712 36.8008 59.1285 36.8082L58.9988 36.8294L59.0124 36.6984C60.0518 26.2898 59.0374 17.378 58.8057 16.8754C58.2927 15.9118 57.4433 15.3801 56.3997 15.4046C54.7233 15.4327 52.9461 16.8616 51.8715 19.047C51.475 19.8784 50.0557 22.7875 48.4501 25.3124C46.5871 28.2452 45.1198 29.649 44.0952 29.4944C43.3529 29.3808 42.8761 28.5115 42.6389 26.8368C42.6372 26.7744 42.6243 21.9173 44.8862 18.6192C45.2006 18.0543 45.2371 17.5655 44.9882 17.2125C44.6151 16.6839 43.6227 16.4678 42.462 16.6619C41.158 16.8809 39.4731 17.6939 39.0173 19.2645C37.9023 21.8158 37.1557 27.1074 39.0807 30.4037C40.0116 31.9986 41.4496 32.9064 43.3529 33.1015C47.128 33.4846 49.4501 29.9663 51.3163 27.1386C51.7256 26.5185 52.112 25.933 52.4906 25.4218C52.6291 25.2007 53.2217 24.5651 53.7888 24.6526C54.1188 24.7009 54.3555 24.9801 54.4937 25.4823C55.505 29.1528 54.9443 37.3297 54.9381 37.3992L54.9324 37.4724L54.8609 37.4886C52.6026 38.0088 50.9134 38.481 50.2528 38.6744L50.2542 38.6799C50.1093 38.723 50.0163 38.7504 49.9553 38.7638M37.5176 59.4663C37.4389 59.4663 37.3619 59.4648 37.2847 59.4617C35.005 59.3834 33.6766 58.2068 33.6392 56.2341V56.2334C33.578 52.688 37.293 47.3042 47.9049 42.828C53.3092 40.7889 54.771 40.5106 54.8299 40.5001L54.9596 40.4763L54.9484 40.6071C53.8499 52.9884 43.0082 59.4663 37.5176 59.4663" fill="#4DB05B"/>
</g>
<path fill-rule="evenodd" clip-rule="evenodd" d="M71.2004 46.7214C71.2004 45.4095 71.3826 44.23 71.7492 43.1838C72.1149 42.1368 72.6215 41.2485 73.2694 40.5176C73.9181 39.7872 74.6869 39.2267 75.5761 38.8363C76.465 38.4465 77.4336 38.2505 78.4806 38.2505C79.478 38.2505 80.351 38.4539 81.0988 38.8615C81.8464 39.2682 82.461 39.737 82.9433 40.2687L81.772 41.5889C81.3391 41.1244 80.8619 40.7542 80.3379 40.4802C79.8149 40.2068 79.2034 40.0698 78.5054 40.0698C77.724 40.0698 77.0179 40.2234 76.3861 40.5298C75.7541 40.8373 75.2147 41.2778 74.7655 41.8507C74.3167 42.4239 73.9677 43.1178 73.7181 43.9313C73.4692 44.7456 73.3445 45.6587 73.3445 46.6713C73.3445 47.7019 73.4649 48.6269 73.7064 49.4492C73.9467 50.2715 74.2835 50.9731 74.716 51.5548C75.1482 52.1361 75.6757 52.5847 76.2989 52.9003C76.922 53.2157 77.6243 53.3729 78.4055 53.3729C79.2034 53.3729 79.8974 53.2157 80.4878 52.9003C81.0769 52.5847 81.6381 52.1361 82.1706 51.5548L83.3421 52.8255C82.6939 53.5726 81.962 54.1548 81.1484 54.569C80.3338 54.9843 79.4029 55.1922 78.3559 55.1922C77.3254 55.1922 76.374 55.0009 75.501 54.6193C74.628 54.2377 73.8716 53.685 73.232 52.9627C72.5926 52.2402 72.0937 51.3512 71.7361 50.297C71.3788 49.2422 71.2004 48.0506 71.2004 46.7214" fill="#3C3C3B"/>
<path fill-rule="evenodd" clip-rule="evenodd" d="M86.1846 37.1542H88.229V52.6016C88.229 52.9332 88.2872 53.1657 88.4033 53.2986C88.5201 53.4317 88.6529 53.4982 88.8026 53.4982H88.9895C89.0476 53.4982 89.1351 53.4818 89.2512 53.4482L89.5254 54.993C89.3919 55.0588 89.2348 55.1088 89.0514 55.1419C88.8688 55.1748 88.6364 55.1922 88.3537 55.1922C87.5725 55.1922 87.0156 54.9597 86.6835 54.4944C86.3503 54.0299 86.1846 53.3481 86.1846 52.4522V37.1542Z" fill="#3C3C3B"/>
<path fill-rule="evenodd" clip-rule="evenodd" d="M93.5895 40.2936C93.1902 40.2936 92.8538 40.1685 92.579 39.9191C92.305 39.6711 92.168 39.3555 92.168 38.9727C92.168 38.5744 92.305 38.2549 92.579 38.0143C92.8538 37.7735 93.1902 37.6525 93.5895 37.6525C93.9883 37.6525 94.3244 37.7735 94.5988 38.0143C94.873 38.2549 95.0103 38.5744 95.0103 38.9727C95.0103 39.3555 94.873 39.6711 94.5988 39.9191C94.3244 40.1685 93.9883 40.2936 93.5895 40.2936V40.2936ZM92.542 54.8929H94.5864V42.7849H92.542V54.8929Z" fill="#3C3C3B"/>
<path fill-rule="evenodd" clip-rule="evenodd" d="M98.6748 42.7847H100.37L100.544 44.5289H100.62C101.201 43.9474 101.812 43.4612 102.452 43.0713C103.091 42.6808 103.835 42.486 104.683 42.486C105.963 42.486 106.898 42.8838 107.489 43.6818C108.078 44.4787 108.374 45.6586 108.374 47.2196V54.8927H106.329V47.4941C106.329 46.3477 106.146 45.5223 105.78 45.0147C105.415 44.5087 104.833 44.2547 104.035 44.2547C103.403 44.2547 102.847 44.4129 102.365 44.7283C101.882 45.0435 101.334 45.5095 100.719 46.1233V54.8927H98.6748V42.7847Z" fill="#3C3C3B"/>
<path fill-rule="evenodd" clip-rule="evenodd" d="M113.36 40.2936C112.961 40.2936 112.624 40.1685 112.35 39.9191C112.076 39.6711 111.938 39.3555 111.938 38.9727C111.938 38.5744 112.076 38.2549 112.35 38.0143C112.624 37.7735 112.961 37.6525 113.36 37.6525C113.758 37.6525 114.096 37.7735 114.369 38.0143C114.643 38.2549 114.78 38.5744 114.78 38.9727C114.78 39.3555 114.643 39.6711 114.369 39.9191C114.096 40.1685 113.758 40.2936 113.36 40.2936V40.2936ZM112.312 54.8929H114.357V42.7849H112.312V54.8929Z" fill="#3C3C3B"/>
<path fill-rule="evenodd" clip-rule="evenodd" d="M117.548 48.8639C117.548 47.851 117.705 46.9501 118.021 46.1611C118.337 45.3724 118.761 44.703 119.294 44.1548C119.825 43.6079 120.444 43.1919 121.151 42.9094C121.857 42.6273 122.601 42.4861 123.381 42.4861C124.18 42.4861 124.866 42.6314 125.439 42.922C126.013 43.2127 126.507 43.5488 126.922 43.9314L125.9 45.2509C125.534 44.9364 125.156 44.6784 124.766 44.4788C124.374 44.2799 123.938 44.1805 123.457 44.1805C122.909 44.1805 122.401 44.2925 121.936 44.5164C121.47 44.7406 121.071 45.061 120.739 45.4755C120.406 45.8912 120.145 46.3855 119.954 46.9587C119.763 47.5313 119.667 48.1664 119.667 48.8639C119.667 49.5617 119.758 50.1935 119.941 50.7576C120.124 51.3219 120.378 51.8081 120.702 52.215C121.026 52.6219 121.42 52.9373 121.886 53.1614C122.351 53.3856 122.858 53.4985 123.407 53.4985C123.989 53.4985 124.516 53.3777 124.99 53.1369C125.464 52.8961 125.883 52.6102 126.249 52.2774L127.171 53.6229C126.623 54.1041 126.013 54.4864 125.339 54.7682C124.666 55.0512 123.963 55.192 123.232 55.192C122.434 55.192 121.687 55.0512 120.988 54.7682C120.291 54.4864 119.688 54.0755 119.181 53.5352C118.674 52.9966 118.275 52.332 117.984 51.5418C117.693 50.7533 117.548 49.8609 117.548 48.8639" fill="#3C3C3B"/>
<path fill-rule="evenodd" clip-rule="evenodd" d="M72.7073 9.39337H76.8703V19.0996H87.3572V9.39337H91.5202V32.2889H87.3572V22.6791H76.8703V32.2889H72.7073V9.39337Z" fill="#3C3C3B"/>
<path fill-rule="evenodd" clip-rule="evenodd" d="M101.955 15.4559C106.699 15.4559 109.248 18.9056 109.248 23.2591C109.248 23.7431 109.151 24.8397 109.151 24.8397H97.7919C98.0505 27.7097 100.277 29.1934 102.73 29.1934C105.376 29.1934 107.473 27.3867 107.473 27.3867L109.054 30.3216C109.054 30.3216 106.537 32.6757 102.439 32.6757C96.9854 32.6757 93.5972 28.7417 93.5972 24.0657C93.5972 19.003 97.0498 15.4559 101.955 15.4559V15.4559ZM105.118 22.0341C105.053 19.8094 103.666 18.6164 101.858 18.6164C99.7605 18.6164 98.3085 19.9056 97.9206 22.0341H105.118Z" fill="#3C3C3B"/>
<path fill-rule="evenodd" clip-rule="evenodd" d="M120.654 21.9694H121.202V21.744C121.202 19.5834 119.848 18.8418 118.04 18.8418C115.684 18.8418 113.522 20.4217 113.522 20.4217L111.973 17.488C111.973 17.488 114.522 15.456 118.427 15.456C122.751 15.456 125.269 17.8418 125.269 22.0018V32.2886H121.492V30.9341C121.492 30.2888 121.557 29.773 121.557 29.773H121.492C121.525 29.773 120.234 32.6757 116.491 32.6757C113.555 32.6757 110.908 30.8381 110.908 27.5478C110.908 22.3239 117.975 21.9694 120.654 21.9694M117.523 29.4833C119.685 29.4833 121.235 27.1612 121.235 25.162V24.7749H120.525C118.427 24.7749 115.039 25.0651 115.039 27.3553C115.039 28.4514 115.845 29.4833 117.523 29.4833" fill="#3C3C3B"/>
<path fill-rule="evenodd" clip-rule="evenodd" d="M128.655 9.39337H132.72V26.549C132.72 28.3543 133.333 28.8059 134.399 28.8059C134.721 28.8059 135.012 28.7735 135.012 28.7735V32.3528C135.012 32.3528 134.399 32.4495 133.721 32.4495C131.461 32.4495 128.655 31.8697 128.655 27.161V9.39337Z" fill="#3C3C3B"/>
<path fill-rule="evenodd" clip-rule="evenodd" d="M138.012 19.3576H135.882V16.1006H138.108V11.3603H142.109V16.1006H145.853V19.3576H142.109V25.7433C142.109 28.4516 144.24 28.8383 145.369 28.8383C145.821 28.8383 146.112 28.7739 146.112 28.7739V32.3537C146.112 32.3537 145.627 32.4499 144.853 32.4499C142.562 32.4499 138.012 31.7729 138.012 26.2583V19.3576Z" fill="#3C3C3B"/>
<path fill-rule="evenodd" clip-rule="evenodd" d="M148.82 9.39337H152.918V17.3261C152.918 18.1322 152.855 18.7123 152.855 18.7123H152.918C153.725 17.1322 155.727 15.4558 158.598 15.4558C162.245 15.4558 164.31 17.3578 164.31 21.7115V32.2889H160.244V22.5498C160.244 20.5504 159.728 19.1964 157.63 19.1964C155.468 19.1964 153.79 20.6154 153.177 22.6148C152.983 23.259 152.918 23.9689 152.918 24.7428V32.2889H148.82V9.39337Z" fill="#3C3C3B"/>
<path fill-rule="evenodd" clip-rule="evenodd" d="M175.698 15.4557C179.99 15.4557 182.022 17.9063 182.022 17.9063L180.215 20.7115C180.215 20.7115 178.506 18.9387 175.924 18.9387C172.89 18.9387 170.922 21.2278 170.922 24.0335C170.922 26.8069 172.923 29.1929 176.053 29.1929C178.829 29.1929 180.893 27.0973 180.893 27.0973L182.475 29.9995C182.475 29.9995 180.118 32.6759 175.698 32.6759C170.244 32.6759 166.759 28.8387 166.759 24.0654C166.759 19.3897 170.244 15.4557 175.698 15.4557" fill="#3C3C3B"/>
<path fill-rule="evenodd" clip-rule="evenodd" d="M194.131 21.9694H194.679V21.744C194.679 19.5834 193.324 18.8418 191.517 18.8418C189.162 18.8418 186.999 20.4217 186.999 20.4217L185.45 17.488C185.45 17.488 187.999 15.456 191.904 15.456C196.228 15.456 198.745 17.8418 198.745 22.0018V32.2886H194.97V30.9341C194.97 30.2888 195.035 29.773 195.035 29.773H194.97C195.001 29.773 193.711 32.6757 189.969 32.6757C187.031 32.6757 184.385 30.8381 184.385 27.5478C184.385 22.3239 191.453 21.9694 194.131 21.9694M191 29.4833C193.163 29.4833 194.712 27.1612 194.712 25.162V24.7749H194.002C191.904 24.7749 188.516 25.0651 188.516 27.3553C188.516 28.4514 189.323 29.4833 191 29.4833" fill="#3C3C3B"/>
<path fill-rule="evenodd" clip-rule="evenodd" d="M201.476 15.8425H205.413V18.6809C205.413 19.2931 205.349 19.8408 205.349 19.8408H205.413C206.156 17.4874 208.124 15.6167 210.64 15.6167C211.028 15.6167 211.384 15.6813 211.384 15.6813V19.7124C211.384 19.7124 210.964 19.6476 210.415 19.6476C208.673 19.6476 206.704 20.6472 205.93 23.0982C205.672 23.9039 205.574 24.8077 205.574 25.7749V32.2883H201.476V15.8425Z" fill="#3C3C3B"/>
<path fill-rule="evenodd" clip-rule="evenodd" d="M220.707 15.4559C225.45 15.4559 228 18.9056 228 23.2591C228 23.7431 227.904 24.8397 227.904 24.8397H216.544C216.803 27.7097 219.03 29.1934 221.481 29.1934C224.128 29.1934 226.225 27.3867 226.225 27.3867L227.806 30.3216C227.806 30.3216 225.29 32.6757 221.192 32.6757C215.738 32.6757 212.35 28.7417 212.35 24.0657C212.35 19.003 215.803 15.4559 220.707 15.4559V15.4559ZM223.869 22.0341C223.805 19.8094 222.417 18.6164 220.61 18.6164C218.514 18.6164 217.061 19.9056 216.673 22.0341H223.869Z" fill="#3C3C3B"/>
</svg>
