<svg width="47" height="47" viewBox="0 0 47 47" fill="none" xmlns="http://www.w3.org/2000/svg">
<path d="M21.1206 16.0899V24.2299C21.1198 24.6855 21.3748 25.1029 21.7806 25.3099L28.7106 29.1099C29.3285 29.4523 30.1046 29.2808 30.5206 28.7099C30.7015 28.4362 30.7568 28.0984 30.6728 27.7813C30.5887 27.4642 30.3733 27.1981 30.0806 27.0499L23.8706 23.6799V16.0899C23.8382 15.3922 23.2485 14.8517 22.5506 14.8799H22.4406C22.104 14.8609 21.7739 14.9787 21.5254 15.2065C21.2768 15.4343 21.1309 15.7529 21.1206 16.0899Z" fill="#000040"/>
<path d="M36.8004 21.4398C36.4363 21.4408 36.0895 21.5957 35.8457 21.8661C35.6019 22.1366 35.4837 22.4976 35.5204 22.8598C35.5204 23.2498 35.5204 23.6498 35.5204 24.0398C35.5204 31.2196 29.7001 37.0398 22.5204 37.0398C15.3407 37.0398 9.52045 31.2196 9.52045 24.0398C9.52045 16.8601 15.3407 11.0398 22.5204 11.0398C23.7244 11.0426 24.9223 11.2109 26.0804 11.5398C26.4615 11.6604 26.877 11.593 27.2005 11.3583C27.5239 11.1237 27.7169 10.7494 27.7204 10.3498V10.2698C27.7177 9.7033 27.3372 9.20823 26.7904 9.05985C21.9704 7.6848 16.7831 8.72064 12.8608 11.8414C8.93852 14.9622 6.7636 19.7841 7.02045 24.7898C7.4479 33.2335 14.5236 39.7999 22.9756 39.5966C31.4276 39.3933 38.1795 32.4943 38.2004 24.0398C38.199 23.5621 38.1723 23.0848 38.1204 22.6098C38.0495 21.9491 37.495 21.4462 36.8304 21.4398H36.8004Z" fill="#000040"/>
<path d="M37.6905 11.32V7.32C37.6905 6.59098 37.0995 6 36.3705 6C35.6415 6 35.0505 6.59098 35.0505 7.32V11.32H31.0505C30.3215 11.32 29.7305 11.911 29.7305 12.64C29.7305 13.369 30.3215 13.96 31.0505 13.96H35.0505V17.96C35.0505 18.689 35.6415 19.28 36.3705 19.28C37.0995 19.28 37.6905 18.689 37.6905 17.96V13.99H41.6905C42.4195 13.99 43.0105 13.399 43.0105 12.67C43.0105 11.941 42.4195 11.35 41.6905 11.35L37.6905 11.32Z" fill="#000040"/>
</svg>
