<svg width="47" height="47" viewBox="0 0 47 47" fill="none" xmlns="http://www.w3.org/2000/svg">
<path fill-rule="evenodd" clip-rule="evenodd" d="M9.24923 7.94775H37.7824C38.4974 7.94773 39.0785 8.52439 39.0839 9.2393V37.7824C39.0785 38.4973 38.4974 39.074 37.7824 39.074H9.24923C8.53431 39.074 7.95321 38.4973 7.94775 37.7824V9.2393C7.95321 8.52439 8.53431 7.94773 9.24923 7.94775ZM36.4392 36.4363C36.4786 36.3988 36.5009 36.3467 36.5008 36.2922V10.7295C36.5009 10.6751 36.4786 10.623 36.4392 10.5854C36.3997 10.5478 36.3466 10.5281 36.2922 10.5308H10.7693C10.706 10.5308 10.6454 10.556 10.6007 10.6007C10.556 10.6454 10.5308 10.706 10.5308 10.7693V36.2922C10.5308 36.3467 10.5531 36.3988 10.5925 36.4363C10.6319 36.4739 10.6851 36.4936 10.7395 36.4909H36.2922C36.3466 36.4936 36.3997 36.4739 36.4392 36.4363Z" fill="#000040"/>
<rect x="14.9517" y="28.8608" width="2.78179" height="2.78179" rx="1.39089" fill="#000040"/>
<rect x="14.9517" y="22.145" width="2.78179" height="2.78179" rx="1.39089" fill="#000040"/>
<rect x="14.9517" y="15.4385" width="2.78179" height="2.78179" rx="1.39089" fill="#000040"/>
<path d="M22.383 31.6425H30.4701C31.0231 31.7363 31.5792 31.4936 31.8864 31.0243C32.1936 30.555 32.1936 29.9483 31.8864 29.479C31.5792 29.0097 31.0231 28.7669 30.4701 28.8607H22.383C21.83 28.7669 21.274 29.0097 20.9667 29.479C20.6595 29.9483 20.6595 30.555 20.9667 31.0243C21.274 31.4936 21.83 31.7363 22.383 31.6425Z" fill="#000040"/>
<path d="M22.3832 24.9363H30.4703C30.8786 24.9748 31.2851 24.8467 31.5975 24.581C31.9099 24.3154 32.1018 23.9347 32.1294 23.5256C32.0942 23.1218 31.8991 22.7488 31.5876 22.4894C31.276 22.2301 30.8738 22.106 30.4703 22.1446H22.3832C21.5555 22.087 20.8327 22.6996 20.7539 23.5256C20.8175 24.3635 21.5449 24.9933 22.3832 24.9363Z" fill="#000040"/>
<path d="M22.3832 18.2205H30.4703C31.2996 18.2777 32.021 17.6581 32.0897 16.8296C32.021 16.0012 31.2996 15.3816 30.4703 15.4387H22.3832C21.552 15.3814 20.8277 15.9997 20.7539 16.8296C20.8277 17.6596 21.552 18.2779 22.3832 18.2205Z" fill="#000040"/>
</svg>
