<svg width="47" height="47" viewBox="0 0 47 47" fill="none" xmlns="http://www.w3.org/2000/svg">
<path fill-rule="evenodd" clip-rule="evenodd" d="M29.1456 39.4151H34.2856C35.9191 39.3934 37.2349 38.0687 37.2456 36.4351V25.5351H38.8856C39.7743 25.5452 40.574 24.9974 40.8856 24.1651C41.1983 23.3517 40.9708 22.4297 40.3156 21.8551L26.0056 8.7851C24.8778 7.7383 23.1335 7.7383 22.0056 8.7851L7.69564 21.8451C7.04996 22.4309 6.8287 23.3522 7.13795 24.1673C7.4472 24.9824 8.22391 25.525 9.09564 25.5351H10.7256V36.4351C10.7256 38.092 12.0688 39.4351 13.7256 39.4351H18.8256C20.4825 39.4351 21.8256 38.092 21.8256 36.4351V29.0051H26.1456V36.4151C26.1456 38.072 27.4888 39.4151 29.1456 39.4151ZM27.4256 26.5051H20.5756C19.9006 26.5048 19.3472 27.0404 19.3256 27.7151V36.4351C19.3259 36.6926 19.1229 36.9044 18.8656 36.9151H13.7256C13.4645 36.9097 13.2556 36.6963 13.2556 36.4351V24.2851C13.2556 23.5947 12.696 23.0351 12.0056 23.0351H10.1056L23.6956 10.6351C23.8679 10.4763 24.1333 10.4763 24.3056 10.6351L37.9056 23.0351H36.0056C35.6724 23.0324 35.3519 23.163 35.1153 23.3977C34.8787 23.6324 34.7456 23.9518 34.7456 24.2851V36.3951C34.7459 36.6526 34.5429 36.8644 34.2856 36.8751H29.1456C28.8845 36.8697 28.6756 36.6563 28.6756 36.3951V27.7151C28.654 27.0404 28.1007 26.5048 27.4256 26.5051Z" fill="#000040"/>
</svg>
