<svg width="47" height="47" viewBox="0 0 47 47" fill="none" xmlns="http://www.w3.org/2000/svg">
<path fill-rule="evenodd" clip-rule="evenodd" d="M16.6211 15.3396C16.6211 11.2573 19.9304 7.948 24.0127 7.948C25.9731 7.948 27.8532 8.72675 29.2394 10.113C30.6256 11.4991 31.4043 13.3792 31.4043 15.3396C31.4043 19.4219 28.095 22.7312 24.0127 22.7312C19.9304 22.7312 16.6211 19.4219 16.6211 15.3396ZM19.1644 15.3396C19.1644 18.0172 21.3351 20.1879 24.0127 20.1879C26.6858 20.177 28.8501 18.0127 28.861 15.3396C28.861 12.662 26.6903 10.4913 24.0127 10.4913C21.3351 10.4913 19.1644 12.662 19.1644 15.3396Z" fill="#000040"/>
<path fill-rule="evenodd" clip-rule="evenodd" d="M7.94775 33.4808C7.94775 28.5729 18.3199 26.0991 23.5158 26.0991C28.7118 26.0991 39.0839 28.5729 39.0839 33.4808V37.7528C39.0761 38.0954 38.9325 38.4208 38.6847 38.6575C38.4368 38.8941 38.1051 39.0226 37.7626 39.0146H9.2691C8.92654 39.0226 8.59484 38.8941 8.34702 38.6575C8.09919 38.4208 7.95557 38.0954 7.94775 37.7528V33.4808ZM10.7117 36.3769C10.7512 36.4145 10.8043 36.4342 10.8587 36.4315H36.173C36.239 36.4768 36.3258 36.478 36.3931 36.4346C36.4603 36.3912 36.495 36.3116 36.481 36.2328V33.4709C36.481 31.9806 31.3346 28.6822 23.5655 28.6822C15.7964 28.6822 10.6501 31.7223 10.6501 33.4907V36.2328C10.65 36.2872 10.6723 36.3394 10.7117 36.3769Z" fill="#000040"/>
</svg>
