<svg width="50" height="50" viewBox="0 0 50 50" fill="none" xmlns="http://www.w3.org/2000/svg">
<path fill-rule="evenodd" clip-rule="evenodd" d="M0 25C0 11.1929 11.1929 0 25 0C38.8071 0 50 11.1929 50 25C50 38.8071 38.8071 50 25 50C11.1929 50 0 38.8071 0 25ZM47.619 25C47.619 12.5078 37.4922 2.38095 25 2.38095C12.5078 2.38095 2.38095 12.5078 2.38095 25C2.38095 37.4922 12.5078 47.619 25 47.619C37.4922 47.619 47.619 37.4922 47.619 25Z" fill="#FFCE00"/>
<path fill-rule="evenodd" clip-rule="evenodd" d="M29.0421 20.127L38.0953 21.4603L31.5615 27.8492L33.0842 36.9048L25 32.627L16.9159 36.9048L18.4386 27.8492L11.9048 21.4603L20.9579 20.127L25 11.9048L29.0421 20.127Z" fill="#FFCE00" stroke="#FFCE00" stroke-width="2" stroke-linecap="round" stroke-linejoin="round"/>
</svg>
