<svg width="33" height="33" viewBox="0 0 33 33" fill="none" xmlns="http://www.w3.org/2000/svg">
<path fill-rule="evenodd" clip-rule="evenodd" d="M9.62134 8.33961C9.62134 4.25733 12.9307 0.947998 17.0129 0.947998C18.9733 0.947998 20.8534 1.72675 22.2396 3.11295C23.6258 4.49915 24.4046 6.37923 24.4046 8.33961C24.4046 12.4219 21.0952 15.7312 17.0129 15.7312C12.9307 15.7312 9.62134 12.4219 9.62134 8.33961ZM12.1647 8.33961C12.1647 11.0172 14.3353 13.1879 17.0129 13.1879C19.686 13.177 21.8503 11.0127 21.8612 8.33961C21.8612 5.66199 19.6906 3.49135 17.0129 3.49135C14.3353 3.49135 12.1647 5.66199 12.1647 8.33961Z" fill="#000040"/>
<path fill-rule="evenodd" clip-rule="evenodd" d="M0.947998 26.4808C0.947998 21.5729 11.3201 19.0991 16.5161 19.0991C21.7121 19.0991 32.0842 21.5729 32.0842 26.4808V30.7528C32.0763 31.0954 31.9327 31.4208 31.6849 31.6575C31.4371 31.8941 31.1054 32.0226 30.7628 32.0146H2.26935C1.92678 32.0226 1.59508 31.8941 1.34726 31.6575C1.09944 31.4208 0.955812 31.0954 0.947998 30.7528V26.4808ZM3.71197 29.3769C3.75141 29.4145 3.80454 29.4342 3.85894 29.4315H29.1732C29.2393 29.4768 29.326 29.478 29.3933 29.4346C29.4606 29.3912 29.4952 29.3116 29.4812 29.2328V26.4709C29.4812 24.9806 24.3349 21.6822 16.5658 21.6822C8.79662 21.6822 3.65031 24.7223 3.65031 26.4907V29.2328C3.65024 29.2872 3.67253 29.3394 3.71197 29.3769Z" fill="#000040"/>
</svg>
