<svg width="72" height="72" viewBox="0 0 72 72" fill="none" xmlns="http://www.w3.org/2000/svg">
<g id="quiz_black_24dp">
<g id="Group">
<path id="Path" d="M51 60H12V21C12 19.35 10.65 18 9 18C7.35 18 6 19.35 6 21V60C6 63.3 8.7 66 12 66H51C52.65 66 54 64.65 54 63C54 61.35 52.65 60 51 60Z" fill="#000040"/>
<path id="Shape" fill-rule="evenodd" clip-rule="evenodd" d="M60 6H24C20.7 6 18 8.7 18 12V48C18 51.3 20.7 54 24 54H60C63.3 54 66 51.3 66 48V12C66 8.7 63.3 6 60 6ZM42.03 45C40.26 45 38.88 43.59 38.88 41.85C38.88 40.08 40.29 38.73 42.03 38.73C43.8 38.73 45.15 40.08 45.15 41.85C45.12 43.59 43.8 45 42.03 45ZM46.7722 29.6539C47.6013 28.8522 48.5536 27.9313 49.53 26.49C51.24 23.97 50.61 20.61 49.5 18.78C48.21 16.68 45.66 15 41.97 15C38.61 15 36.06 16.65 34.53 18.87C33.75 19.98 34.29 21.54 35.55 22.08C36.51 22.5 37.65 22.2 38.22 21.33C38.97 20.19 40.17 19.23 42 19.23C46.05 19.23 46.86 23.01 45.42 25.05C44.8203 25.9029 44.0312 26.6315 43.2314 27.3699C42.2308 28.2937 41.2136 29.2328 40.53 30.45C40.05 31.26 39.87 32.13 39.78 32.97C39.66 34.29 40.71 35.43 42.03 35.43H42.12C43.29 35.43 44.22 34.56 44.37 33.39C44.46 32.7 44.61 32.34 44.85 31.92C45.3286 31.0499 45.9964 30.4041 46.7722 29.6539Z" fill="#000040"/>
</g>
</g>
</svg>
